SplineFontDB: 3.2
FontName: Emuuriimu
FullName: Emuuriimu v0.8
FamilyName: Emuuriimu Pixel
Weight: Regular
Copyright: Copyright (c) 2026, nexiapd, with Reserved Font Name "Emuuriimu". Licensed under SIL OFL 1.1.
Version: 0.8
ItalicAngle: 0
UnderlinePosition: 0
UnderlineWidth: 0
Ascent: 1638
Descent: 410
InvalidEm: 0
sfntRevision: 0x00010000
LayerCount: 2
Layer: 0 0 "Back" 1
Layer: 1 0 "Fore" 0
XUID: [1021 872 -920045262 18184]
StyleMap: 0x0040
FSType: 0
OS2Version: 3
OS2_WeightWidthSlopeOnly: 0
OS2_UseTypoMetrics: 0
CreationTime: 1780299522
ModificationTime: 1780773169
PfmFamily: 81
TTFWeight: 400
TTFWidth: 5
LineGap: 0
VLineGap: 0
Panose: 0 0 4 0 0 0 0 0 0 0
OS2TypoAscent: 2048
OS2TypoAOffset: 0
OS2TypoDescent: -440
OS2TypoDOffset: 0
OS2TypoLinegap: 0
OS2WinAscent: 2048
OS2WinAOffset: 0
OS2WinDescent: 4
OS2WinDOffset: 0
HheadAscent: 2048
HheadAOffset: 0
HheadDescent: -440
HheadDOffset: 0
OS2SubXSize: 650
OS2SubYSize: 699
OS2SubXOff: 0
OS2SubYOff: 140
OS2SupXSize: 650
OS2SupYSize: 699
OS2SupXOff: 0
OS2SupYOff: 479
OS2StrikeYSize: 49
OS2StrikeYPos: 258
OS2CapHeight: 2048
OS2XHeight: 2048
OS2Vendor: 'XXXX'
OS2CodePages: 00000001.00000000
OS2UnicodeRanges: 00000003.10000000.00000000.00000000
Lookup: 4 0 1 "'liga' Standard Ligatures in Latin lookup 0" { "'liga' Standard Ligatures in Latin lookup 0 subtable"  } ['liga' ('latn' <'dflt' > 'DFLT' <'dflt' > ) ]
Lookup: 6 0 0 "'calt' Contextual Alternates in Latin lookup 1" { "'calt' Contextual Alternates in Latin lookup 1 contextual 0"  "'calt' Contextual Alternates in Latin lookup 1 contextual 1"  } ['calt' ('latn' <'dflt' > 'DFLT' <'dflt' > ) ]
Lookup: 1 0 0 "Single Substitution lookup 2" { "Single Substitution lookup 2 subtable"  } []
Lookup: 1 0 0 "Single Substitution lookup 3" { "Single Substitution lookup 3 subtable"  } []
Lookup: 4 0 0 "'calt' Contextual Alternates in Latin lookup 4" { "'calt' Contextual Alternates in Latin lookup 4 subtable"  } ['calt' ('latn' <'dflt' > 'DFLT' <'dflt' > ) ]

StartChar: .notdef
Encoding: 0 0 0
Width: 1263
GlyphClass: 1
Flags: W
LayerCount: 2
Fore
SplineSet
0 2047 m 1
 1263 2047 l 1
 1263 0 l 1
 0 0 l 1
 0 2047 l 1
146 146 m 1
 1117 146 l 1
 1117 1901 l 1
 146 1901 l 1
 146 146 l 1
EndSplineSet
Validated: 1
EndChar

StartChar: a
Encoding: 97 97 2
Width: 1760
GlyphClass: 1
Flags: W
HStem: 0 292<877 1170> 292 293<1170 1462> 877 293<0 292 585 1462 1755 2048> 1442 20G<292 585 1462 1755> 1462 293<585 877 1170 1462> 1755 293<877 1170>
VStem: 585 292<1462 1755> 877 293<0 292 1755 2048> 1170 292<292 585 1462 1755> 1462 293<585 877 1170 1462>
LayerCount: 2
Fore
SplineSet
877 0 m 1xa1
 877 292 l 1
 1170 292 l 1
 1170 0 l 1
 877 0 l 1xa1
1170 292 m 1
 1170 585 l 1
 1462 585 l 1
 1462 292 l 1x6080
 1170 292 l 1
1462 585 m 1
 1462 877 l 1
 0 877 l 1
 0 1170 l 1
 292 1170 l 1
 292 1462 l 1
 585 1462 l 1
 585 1170 l 1
 1462 1170 l 1x7240
 1462 1462 l 1x7080
 1755 1462 l 1
 1755 1170 l 1
 2048 1170 l 1
 2048 877 l 1
 1755 877 l 1
 1755 585 l 1x7040
 1462 585 l 1
585 1462 m 1
 585 1755 l 1
 877 1755 l 1
 877 1462 l 1x2a
 585 1462 l 1
1170 1462 m 1x2880
 1170 1755 l 1x29
 1462 1755 l 1x2880
 1462 1462 l 1x3080
 1170 1462 l 1x2880
877 1755 m 1x2a
 877 2048 l 1
 1170 2048 l 1x25
 1170 1755 l 1x29
 877 1755 l 1x2a
EndSplineSet
Validated: 5
EndChar

StartChar: e
Encoding: 101 101 3
Width: 1760
GlyphClass: 1
Flags: W
HStem: 0 292<877 1170> 292 293<585 877> 877 293<0 292 585 1462 1755 2048> 1442 20G<292 585 1462 1755> 1462 293<585 877 1170 1462> 1755 293<877 1170>
VStem: 292 293<585 877 1170 1462> 585 292<292 585 1462 1755> 877 293<0 292 1755 2048> 1170 292<1462 1755>
LayerCount: 2
Fore
SplineSet
877 0 m 1xa080
 877 292 l 1xa1
 1170 292 l 1
 1170 0 l 1
 877 0 l 1xa080
585 292 m 1x61
 585 585 l 1x62
 877 585 l 1x61
 877 292 l 1xa1
 585 292 l 1x61
292 585 m 1
 292 877 l 1
 0 877 l 1
 0 1170 l 1
 292 1170 l 1
 292 1462 l 1
 585 1462 l 1
 585 1170 l 1
 1462 1170 l 1
 1462 1462 l 1
 1755 1462 l 1x7240
 1755 1170 l 1
 2048 1170 l 1
 2048 877 l 1
 585 877 l 1
 585 585 l 1
 292 585 l 1
585 1462 m 1
 585 1755 l 1
 877 1755 l 1
 877 1462 l 1x29
 585 1462 l 1
1170 1462 m 1x2840
 1170 1755 l 1x2880
 1462 1755 l 1x2840
 1462 1462 l 1x3040
 1170 1462 l 1x2840
877 1755 m 1x29
 877 2048 l 1
 1170 2048 l 1x2480
 1170 1755 l 1x2880
 877 1755 l 1x29
EndSplineSet
Validated: 5
EndChar

StartChar: g
Encoding: 103 103 4
Width: 877
GlyphClass: 1
Flags: W
HStem: 0 292<877 1170> 292 293<585 877> 585 292<292 585> 877 293<0 292> 1170 292<292 585> 2028 20G<877 1170> 2028 20G<877 1170>
VStem: 0 292<877 1170> 292 293<585 877 1170 1462> 585 292<292 585> 877 293<0 292 877 1462 1755 2048>
LayerCount: 2
Fore
SplineSet
877 0 m 1x8020
 877 292 l 1x8040
 1170 292 l 1
 1170 0 l 1
 877 0 l 1x8020
585 292 m 1x4040
 585 585 l 1x4080
 877 585 l 1x4040
 877 292 l 1x8040
 585 292 l 1x4040
292 585 m 1x2080
 292 877 l 1x21
 585 877 l 1x2080
 585 585 l 1x4080
 292 585 l 1x2080
0 877 m 1x11
 0 1170 l 1
 292 1170 l 1x11
 292 877 l 1x21
 0 877 l 1x11
292 1170 m 1
 292 1462 l 1
 585 1462 l 1
 585 1170 l 1x0880
 292 1170 l 1
877 877 m 1x1420
 877 1462 l 1
 585 1462 l 1x08a0
 585 1755 l 1x0840
 877 1755 l 1
 877 2048 l 1
 1170 2048 l 1
 1170 877 l 1
 877 877 l 1x1420
EndSplineSet
Validated: 5
Substitution2: "Single Substitution lookup 3 subtable" g.init
Substitution2: "Single Substitution lookup 2 subtable" g.init
EndChar

StartChar: h
Encoding: 104 104 5
Width: 877
GlyphClass: 1
Flags: W
HStem: 0 292<877 1170> 292 293<585 877> 877 293<0 292 585 877> 2028 20G<877 1170> 2028 20G<877 1170>
VStem: 585 292<292 585> 877 293<0 292 1170 2048>
LayerCount: 2
Fore
SplineSet
877 0 m 1xa2
 877 292 l 1xa4
 1170 292 l 1
 1170 0 l 1
 877 0 l 1xa2
585 292 m 1x64
 585 585 l 1
 877 585 l 1x64
 877 292 l 1xa4
 585 292 l 1x64
292 585 m 1
 292 877 l 1
 0 877 l 1
 0 1170 l 1
 877 1170 l 1
 877 2048 l 1
 1170 2048 l 1
 1170 877 l 1x72
 585 877 l 1
 585 585 l 1
 292 585 l 1
EndSplineSet
Validated: 5
Substitution2: "Single Substitution lookup 3 subtable" h.init
Substitution2: "Single Substitution lookup 2 subtable" h.init
EndChar

StartChar: i
Encoding: 105 105 6
Width: 1760
GlyphClass: 1
Flags: W
HStem: 0 292<877 1170> 292 293<1170 1462> 585 292<1462 1755> 877 293<0 292 1755 2048> 1170 292<292 585 1462 1755> 1462 293<585 877 1170 1462> 1755 293<877 1170>
VStem: 0 292<877 1170> 292 293<1170 1462> 585 292<1462 1755> 877 293<0 292 1755 2048> 1170 292<292 585 1462 1755> 1462 293<585 877 1170 1462> 1755 293<877 1170>
LayerCount: 2
Fore
SplineSet
877 0 m 1x8020
 877 292 l 1
 1170 292 l 1
 1170 0 l 1
 877 0 l 1x8020
1170 292 m 1
 1170 585 l 1
 1462 585 l 1
 1462 292 l 1x4010
 1170 292 l 1
1462 585 m 1
 1462 877 l 1
 1755 877 l 1
 1755 585 l 1x2008
 1462 585 l 1
0 877 m 1x11
 0 1170 l 1
 292 1170 l 1
 292 877 l 1
 0 877 l 1x11
1755 877 m 1x2008
 1755 1170 l 1x1008
 2048 1170 l 1
 2048 877 l 1x1004
 1755 877 l 1x2008
292 1170 m 1x11
 292 1462 l 1
 585 1462 l 1
 585 1170 l 1x0880
 292 1170 l 1x11
1462 1170 m 1x0808
 1462 1462 l 1x0810
 1755 1462 l 1x0808
 1755 1170 l 1x1008
 1462 1170 l 1x0808
585 1462 m 1x0880
 585 1755 l 1
 877 1755 l 1
 877 1462 l 1x0440
 585 1462 l 1x0880
1170 1462 m 1x0410
 1170 1755 l 1x0420
 1462 1755 l 1x0410
 1462 1462 l 1x0810
 1170 1462 l 1x0410
877 1755 m 1x0440
 877 2048 l 1
 1170 2048 l 1x0220
 1170 1755 l 1x0420
 877 1755 l 1x0440
EndSplineSet
Validated: 5
EndChar

StartChar: j
Encoding: 106 106 7
Width: 877
GlyphClass: 1
Flags: W
HStem: 0 292<877 1170> 292 293<585 877> 585 292<292 585> 877 293<0 292> 1170 292<292 585> 1462 293<585 877> 1755 293<877 1170>
VStem: 0 292<877 1170> 292 293<585 877 1170 1462> 585 292<292 585 1462 1755> 877 293<0 292 1755 2048>
LayerCount: 2
Fore
SplineSet
877 0 m 1x8020
 877 292 l 1x8040
 1170 292 l 1
 1170 0 l 1
 877 0 l 1x8020
585 292 m 1x4040
 585 585 l 1x4080
 877 585 l 1x4040
 877 292 l 1x8040
 585 292 l 1x4040
292 585 m 1x2080
 292 877 l 1x21
 585 877 l 1x2080
 585 585 l 1x4080
 292 585 l 1x2080
0 877 m 1x11
 0 1170 l 1
 292 1170 l 1x11
 292 877 l 1x21
 0 877 l 1x11
292 1170 m 1
 292 1462 l 1
 585 1462 l 1
 585 1170 l 1x0880
 292 1170 l 1
585 1462 m 1
 585 1755 l 1
 877 1755 l 1
 877 1462 l 1x0440
 585 1462 l 1
877 1755 m 1
 877 2048 l 1
 1170 2048 l 1
 1170 1755 l 1x0220
 877 1755 l 1
EndSplineSet
Validated: 5
Substitution2: "Single Substitution lookup 3 subtable" j.init
Substitution2: "Single Substitution lookup 2 subtable" j.init
EndChar

StartChar: k
Encoding: 107 107 8
Width: 877
GlyphClass: 1
Flags: W
HStem: 0 292<0 585 877 1170> 585 292<292 585> 877 293<0 292>
VStem: 0 292<877 1170> 292 293<585 877> 585 292<292 585>
LayerCount: 2
Fore
SplineSet
0 0 m 1xd4
 0 292 l 1
 585 292 l 1xd4
 585 585 l 1xc8
 877 585 l 1
 877 292 l 1
 1170 292 l 1
 1170 0 l 1
 0 0 l 1xd4
292 585 m 1xc8
 292 877 l 1xd0
 585 877 l 1
 585 585 l 1
 292 585 l 1xc8
0 877 m 1xb0
 0 1170 l 1
 292 1170 l 1xb0
 292 877 l 1xd0
 0 877 l 1xb0
EndSplineSet
Validated: 5
Substitution2: "Single Substitution lookup 3 subtable" k.init
Substitution2: "Single Substitution lookup 2 subtable" k.init
EndChar

StartChar: l
Encoding: 108 108 9
Width: 877
GlyphClass: 1
Flags: W
HStem: 0 21G<877 1170> 0 21G<877 1170> 585 292<292 585> 877 293<0 292> 2028 20G<877 1170> 2028 20G<877 1170>
VStem: 0 292<877 1170> 292 293<585 877> 877 293<0 292 585 2048>
LayerCount: 2
Fore
SplineSet
292 585 m 1x2180
 292 877 l 1x2280
 585 877 l 1
 585 585 l 1
 292 585 l 1x2180
0 877 m 1x1280
 0 1170 l 1
 292 1170 l 1x1280
 292 877 l 1x2280
 0 877 l 1x1280
877 0 m 1xa980
 877 292 l 1
 585 292 l 1
 585 585 l 1
 877 585 l 1
 877 2048 l 1
 1170 2048 l 1
 1170 0 l 1
 877 0 l 1xa980
EndSplineSet
Validated: 5
Substitution2: "Single Substitution lookup 3 subtable" l.init
Substitution2: "Single Substitution lookup 2 subtable" l.init
EndChar

StartChar: m
Encoding: 109 109 10
Width: 877
GlyphClass: 1
Flags: W
HStem: 0 292<877 1170> 292 293<585 877> 877 293<0 292 585 1170> 1442 20G<292 585> 1462 293<585 877> 1755 293<877 1170>
VStem: 292 293<585 877 1170 1462> 585 292<292 585 1462 1755> 877 293<0 292 1755 2048>
LayerCount: 2
Fore
SplineSet
877 0 m 1xa080
 877 292 l 1xa1
 1170 292 l 1
 1170 0 l 1
 877 0 l 1xa080
585 292 m 1x61
 585 585 l 1x62
 877 585 l 1x61
 877 292 l 1xa1
 585 292 l 1x61
292 585 m 1
 292 877 l 1
 0 877 l 1
 0 1170 l 1
 292 1170 l 1
 292 1462 l 1
 585 1462 l 1
 585 1170 l 1
 1170 1170 l 1
 1170 877 l 1x7280
 585 877 l 1
 585 585 l 1
 292 585 l 1
585 1462 m 1
 585 1755 l 1
 877 1755 l 1
 877 1462 l 1x29
 585 1462 l 1
877 1755 m 1
 877 2048 l 1
 1170 2048 l 1
 1170 1755 l 1x2480
 877 1755 l 1
EndSplineSet
Validated: 5
Substitution2: "Single Substitution lookup 3 subtable" m.init
Substitution2: "Single Substitution lookup 2 subtable" m.init
EndChar

StartChar: n
Encoding: 110 110 11
Width: 877
GlyphClass: 1
Flags: W
HStem: 0 21G<877 1170> 0 21G<877 1170> 877 293<0 292> 1170 292<292 585> 2028 20G<877 1170> 2028 20G<877 1170>
VStem: 0 292<877 1170> 292 293<1170 1462> 877 293<0 1462 1755 2048>
LayerCount: 2
Fore
SplineSet
0 877 m 1x2280
 0 1170 l 1
 292 1170 l 1
 292 877 l 1
 0 877 l 1x2280
292 1170 m 1
 292 1462 l 1
 585 1462 l 1
 585 1170 l 1x1180
 292 1170 l 1
877 0 m 1x9980
 877 1462 l 1
 585 1462 l 1
 585 1755 l 1
 877 1755 l 1
 877 2048 l 1
 1170 2048 l 1
 1170 0 l 1
 877 0 l 1x9980
EndSplineSet
Validated: 5
Substitution2: "Single Substitution lookup 3 subtable" n.init
Substitution2: "Single Substitution lookup 2 subtable" n.init
EndChar

StartChar: o
Encoding: 111 111 12
Width: 1760
GlyphClass: 1
Flags: W
HStem: 0 292<877 1170> 292 293<585 877 1170 1462> 585 292<292 585 1462 1755> 877 293<0 292 1755 2048> 1170 292<292 585 1462 1755> 1462 293<585 877 1170 1462> 1755 293<877 1170>
VStem: 0 292<877 1170> 292 293<585 877 1170 1462> 585 292<292 585 1462 1755> 877 293<0 292 1755 2048> 1170 292<292 585 1462 1755> 1462 293<585 877 1170 1462> 1755 293<877 1170>
LayerCount: 2
Fore
SplineSet
877 0 m 1x8020
 877 292 l 1x8040
 1170 292 l 1
 1170 0 l 1
 877 0 l 1x8020
585 292 m 1x4040
 585 585 l 1x4080
 877 585 l 1x4040
 877 292 l 1x8040
 585 292 l 1x4040
1170 292 m 1x8020
 1170 585 l 1
 1462 585 l 1
 1462 292 l 1x4010
 1170 292 l 1x8020
292 585 m 1x2080
 292 877 l 1x21
 585 877 l 1x2080
 585 585 l 1x4080
 292 585 l 1x2080
1462 585 m 1x4010
 1462 877 l 1
 1755 877 l 1
 1755 585 l 1x2008
 1462 585 l 1x4010
0 877 m 1x11
 0 1170 l 1
 292 1170 l 1x11
 292 877 l 1x21
 0 877 l 1x11
1755 877 m 1x2008
 1755 1170 l 1x1008
 2048 1170 l 1
 2048 877 l 1x1004
 1755 877 l 1x2008
292 1170 m 1x11
 292 1462 l 1
 585 1462 l 1
 585 1170 l 1x0880
 292 1170 l 1x11
1462 1170 m 1x0808
 1462 1462 l 1x0810
 1755 1462 l 1x0808
 1755 1170 l 1x1008
 1462 1170 l 1x0808
585 1462 m 1x0880
 585 1755 l 1
 877 1755 l 1
 877 1462 l 1x0440
 585 1462 l 1x0880
1170 1462 m 1x0410
 1170 1755 l 1x0420
 1462 1755 l 1x0410
 1462 1462 l 1x0810
 1170 1462 l 1x0410
877 1755 m 1x0440
 877 2048 l 1
 1170 2048 l 1x0220
 1170 1755 l 1x0420
 877 1755 l 1x0440
EndSplineSet
Validated: 5
EndChar

StartChar: p
Encoding: 112 112 13
Width: 877
GlyphClass: 1
Flags: W
HStem: 0 21G<877 1170> 0 21G<877 1170> 877 293<0 292 585 877> 1442 20G<292 585> 1462 293<585 877> 1755 293<877 1170>
VStem: 585 292<1462 1755> 877 293<0 877 1755 2048>
LayerCount: 2
Fore
SplineSet
877 0 m 1xb1
 877 877 l 1xb1
 0 877 l 1
 0 1170 l 1
 292 1170 l 1
 292 1462 l 1
 585 1462 l 1
 585 1170 l 1xb2
 1170 1170 l 1
 1170 0 l 1
 877 0 l 1xb1
585 1462 m 1x32
 585 1755 l 1
 877 1755 l 1
 877 1462 l 1x2a
 585 1462 l 1x32
877 1755 m 1
 877 2048 l 1
 1170 2048 l 1
 1170 1755 l 1x25
 877 1755 l 1
EndSplineSet
Validated: 5
Substitution2: "Single Substitution lookup 3 subtable" p.init
Substitution2: "Single Substitution lookup 2 subtable" p.init
EndChar

StartChar: r
Encoding: 114 114 14
Width: 877
GlyphClass: 1
Flags: W
HStem: 0 292<0 877> 877 293<0 877>
VStem: 877 293<292 877>
LayerCount: 2
Fore
SplineSet
0 0 m 1
 0 292 l 1
 877 292 l 1
 877 877 l 1
 0 877 l 1
 0 1170 l 1
 1170 1170 l 1
 1170 0 l 1
 0 0 l 1
EndSplineSet
Validated: 1
Substitution2: "Single Substitution lookup 3 subtable" r.init
Substitution2: "Single Substitution lookup 2 subtable" r.init
EndChar

StartChar: s
Encoding: 115 115 15
Width: 877
GlyphClass: 1
Flags: W
HStem: 877 293<0 877> 1755 293<0 877>
VStem: 877 293<1170 1755>
LayerCount: 2
Fore
SplineSet
0 877 m 1
 0 1170 l 1
 877 1170 l 1
 877 1755 l 1
 0 1755 l 1
 0 2048 l 1
 1170 2048 l 1
 1170 877 l 1
 0 877 l 1
EndSplineSet
Validated: 1
Substitution2: "Single Substitution lookup 3 subtable" s.init
Substitution2: "Single Substitution lookup 2 subtable" s.init
EndChar

StartChar: t
Encoding: 116 116 16
Width: 877
GlyphClass: 1
Flags: W
HStem: 877 293<0 292> 1170 292<292 585> 1755 293<0 585>
VStem: 0 292<877 1170> 292 293<1170 1462> 877 293<877 1462>
LayerCount: 2
Fore
SplineSet
0 877 m 1xb4
 0 1170 l 1
 292 1170 l 1
 292 877 l 1
 0 877 l 1xb4
292 1170 m 1
 292 1462 l 1
 585 1462 l 1
 585 1170 l 1x6c
 292 1170 l 1
877 877 m 1xb4
 877 1462 l 1
 585 1462 l 1
 585 1755 l 1x6c
 0 1755 l 1
 0 2048 l 1
 1170 2048 l 1
 1170 877 l 1
 877 877 l 1xb4
EndSplineSet
Validated: 5
Substitution2: "Single Substitution lookup 3 subtable" t.init
Substitution2: "Single Substitution lookup 2 subtable" t.init
EndChar

StartChar: u
Encoding: 117 117 17
Width: 1760
GlyphClass: 1
Flags: W
HStem: 0 292<877 1170> 292 293<585 877 1170 1462> 585 292<292 585 1462 1755> 877 293<0 292 1755 2048>
VStem: 0 292<877 1170> 292 293<585 877> 585 292<292 585> 877 293<0 292> 1170 292<292 585> 1462 293<585 877> 1755 293<877 1170>
LayerCount: 2
Fore
SplineSet
877 0 m 1x81
 877 292 l 1x82
 1170 292 l 1
 1170 0 l 1
 877 0 l 1x81
585 292 m 1x42
 585 585 l 1x44
 877 585 l 1x42
 877 292 l 1x82
 585 292 l 1x42
1170 292 m 1x81
 1170 585 l 1
 1462 585 l 1
 1462 292 l 1x4080
 1170 292 l 1x81
292 585 m 1x24
 292 877 l 1x28
 585 877 l 1x24
 585 585 l 1x44
 292 585 l 1x24
1462 585 m 1x4080
 1462 877 l 1
 1755 877 l 1
 1755 585 l 1x2040
 1462 585 l 1x4080
0 877 m 1x18
 0 1170 l 1
 292 1170 l 1x18
 292 877 l 1x28
 0 877 l 1x18
1755 877 m 1x2040
 1755 1170 l 1
 2048 1170 l 1
 2048 877 l 1x1020
 1755 877 l 1x2040
EndSplineSet
Validated: 5
EndChar

StartChar: v
Encoding: 118 118 18
Width: 877
GlyphClass: 1
Flags: W
HStem: 0 21G<877 1170> 0 21G<877 1170> 585 292<292 585> 877 293<0 292>
VStem: 0 292<877 1170> 292 293<585 877> 877 293<0 292 585 1170>
LayerCount: 2
Fore
SplineSet
292 585 m 1x26
 292 877 l 1x2a
 585 877 l 1
 585 585 l 1
 292 585 l 1x26
0 877 m 1x1a
 0 1170 l 1
 292 1170 l 1x1a
 292 877 l 1x2a
 0 877 l 1x1a
877 0 m 1x96
 877 292 l 1
 585 292 l 1
 585 585 l 1
 877 585 l 1xa6
 877 1170 l 1
 1170 1170 l 1
 1170 0 l 1
 877 0 l 1x96
EndSplineSet
Validated: 5
Substitution2: "Single Substitution lookup 3 subtable" v.init
Substitution2: "Single Substitution lookup 2 subtable" v.init
EndChar

StartChar: w
Encoding: 119 119 19
Width: 1760
GlyphClass: 1
Flags: W
HStem: 0 21G<877 1170> 0 21G<877 1170> 292 293<585 877 1170 1462> 585 292<292 585 1462 1755> 877 293<0 292 1755 2048>
VStem: 0 292<877 1170> 292 293<585 877> 877 293<0 292 585 1170> 1462 293<585 877> 1755 293<877 1170>
LayerCount: 2
Fore
SplineSet
292 585 m 1x13
 292 877 l 1x15
 585 877 l 1x13
 585 585 l 1x23
 292 585 l 1x13
1462 585 m 1x2180
 1462 877 l 1
 1755 877 l 1
 1755 585 l 1x1180
 1462 585 l 1x2180
0 877 m 1x0d
 0 1170 l 1
 292 1170 l 1x0d
 292 877 l 1x15
 0 877 l 1x0d
877 0 m 1xab80
 877 292 l 1
 585 292 l 1
 585 585 l 1
 877 585 l 1
 877 1170 l 1
 1170 1170 l 1
 1170 585 l 1
 1462 585 l 1
 1462 292 l 1
 1170 292 l 1
 1170 0 l 1
 877 0 l 1xab80
1755 877 m 1x1180
 1755 1170 l 1
 2048 1170 l 1
 2048 877 l 1x0940
 1755 877 l 1x1180
EndSplineSet
Validated: 5
EndChar

StartChar: y
Encoding: 121 121 20
Width: 1760
GlyphClass: 1
Flags: W
HStem: 0 292<0 585 877 1170> 292 293<1170 1462> 585 292<292 585 1462 1755> 877 293<0 292 1755 2048>
VStem: 0 292<877 1170> 292 293<585 877> 585 292<292 585> 1170 292<292 585> 1462 293<585 877> 1755 293<877 1170>
LayerCount: 2
Fore
SplineSet
0 0 m 1xab
 0 292 l 1
 585 292 l 1xab
 585 585 l 1xa4
 877 585 l 1
 877 292 l 1
 1170 292 l 1
 1170 0 l 1
 0 0 l 1xab
1170 292 m 1
 1170 585 l 1
 1462 585 l 1
 1462 292 l 1x41
 1170 292 l 1
292 585 m 1x24
 292 877 l 1x28
 585 877 l 1
 585 585 l 1
 292 585 l 1x24
1462 585 m 1x41
 1462 877 l 1
 1755 877 l 1
 1755 585 l 1x2080
 1462 585 l 1x41
0 877 m 1x18
 0 1170 l 1
 292 1170 l 1x18
 292 877 l 1x28
 0 877 l 1x18
1755 877 m 1x2080
 1755 1170 l 1
 2048 1170 l 1
 2048 877 l 1x1040
 1755 877 l 1x2080
EndSplineSet
Validated: 5
EndChar

StartChar: adieresis
Encoding: 228 228 21
Width: 1760
GlyphClass: 1
Flags: W
HStem: 0 292<877 1170> 292 293<1170 1462> 877 293<0 292 585 1462 1755 2048> 1442 20G<292 585 1462 1755> 1462 586<585 877 1170 1462> 1755 293<0 585 877 1170 1462 2048>
VStem: 585 292<1462 1755> 877 293<0 292> 1170 292<292 585 1462 1755> 1462 293<585 877 1170 1462>
LayerCount: 2
Fore
SplineSet
877 0 m 1xa1
 877 292 l 1
 1170 292 l 1
 1170 0 l 1
 877 0 l 1xa1
1170 292 m 1
 1170 585 l 1
 1462 585 l 1
 1462 292 l 1x6080
 1170 292 l 1
1462 585 m 1
 1462 877 l 1
 0 877 l 1
 0 1170 l 1
 292 1170 l 1
 292 1462 l 1
 585 1462 l 1
 585 1170 l 1
 1462 1170 l 1x7240
 1462 1462 l 1x7080
 1755 1462 l 1
 1755 1170 l 1
 2048 1170 l 1
 2048 877 l 1
 1755 877 l 1
 1755 585 l 1x7040
 1462 585 l 1
585 1462 m 1
 585 1755 l 1
 0 1755 l 1
 0 2048 l 1
 2048 2048 l 1
 2048 1755 l 1
 1462 1755 l 1
 1462 1462 l 1x3680
 1170 1462 l 1x2a80
 1170 1755 l 1
 877 1755 l 1x2680
 877 1462 l 1x2a80
 585 1462 l 1
EndSplineSet
Validated: 5
EndChar

StartChar: odieresis
Encoding: 246 246 22
Width: 1760
GlyphClass: 1
Flags: W
HStem: 0 292<877 1170> 292 293<585 877 1170 1462> 585 292<292 585 1462 1755> 877 293<0 292 1755 2048> 1170 292<292 585 1462 1755> 1462 586<585 877 1170 1462> 1755 293<0 585 877 1170 1462 2048>
VStem: 0 292<877 1170> 292 293<585 877 1170 1462> 585 292<292 585 1462 1755> 877 293<0 292> 1170 292<292 585 1462 1755> 1462 293<585 877 1170 1462> 1755 293<877 1170>
LayerCount: 2
Fore
SplineSet
877 0 m 1x8020
 877 292 l 1x8040
 1170 292 l 1
 1170 0 l 1
 877 0 l 1x8020
585 292 m 1x4040
 585 585 l 1x4080
 877 585 l 1x4040
 877 292 l 1x8040
 585 292 l 1x4040
1170 292 m 1x8020
 1170 585 l 1
 1462 585 l 1
 1462 292 l 1x4010
 1170 292 l 1x8020
292 585 m 1x2080
 292 877 l 1x21
 585 877 l 1x2080
 585 585 l 1x4080
 292 585 l 1x2080
1462 585 m 1x4010
 1462 877 l 1
 1755 877 l 1
 1755 585 l 1x2008
 1462 585 l 1x4010
0 877 m 1x11
 0 1170 l 1
 292 1170 l 1x11
 292 877 l 1x21
 0 877 l 1x11
1755 877 m 1x2008
 1755 1170 l 1x1008
 2048 1170 l 1
 2048 877 l 1x1004
 1755 877 l 1x2008
292 1170 m 1x11
 292 1462 l 1
 585 1462 l 1
 585 1170 l 1x0880
 292 1170 l 1x11
1462 1170 m 1x0808
 1462 1462 l 1x0810
 1755 1462 l 1x0808
 1755 1170 l 1x1008
 1462 1170 l 1x0808
585 1462 m 1x0880
 585 1755 l 1
 0 1755 l 1
 0 2048 l 1
 2048 2048 l 1
 2048 1755 l 1
 1462 1755 l 1
 1462 1462 l 1x0b54
 1170 1462 l 1x0554
 1170 1755 l 1
 877 1755 l 1x0354
 877 1462 l 1x0554
 585 1462 l 1x0880
EndSplineSet
Validated: 5
EndChar

StartChar: aa
Encoding: 57344 57344 23
Width: 1760
GlyphClass: 1
Flags: W
HStem: 0 21G<877 1170> 0 21G<877 1170> 877 585<292 585 1462 1755> 877 293<0 292 585 877 1170 1462 1755 2048> 1462 293<585 877 1170 1462> 2028 20G<877 1170> 2028 20G<877 1170>
VStem: 292 293<1170 1462> 877 293<0 877 1170 1462 1755 2048> 1462 293<1170 1462>
CounterMasks: 1 01c0
LayerCount: 2
Fore
SplineSet
877 0 m 1x91c0
 877 877 l 1
 0 877 l 1
 0 1170 l 1
 292 1170 l 1x91c0
 292 1462 l 1
 585 1462 l 1x21c0
 585 1170 l 1
 877 1170 l 1
 877 1462 l 1x19c0
 585 1462 l 1x21c0
 585 1755 l 1
 877 1755 l 1
 877 2048 l 1
 1170 2048 l 1
 1170 1755 l 1
 1462 1755 l 1x0dc0
 1462 1462 l 1x21c0
 1170 1462 l 1
 1170 1170 l 1
 1462 1170 l 1x19c0
 1462 1462 l 1
 1755 1462 l 1x21c0
 1755 1170 l 1
 2048 1170 l 1
 2048 877 l 1
 1170 877 l 1
 1170 0 l 1
 877 0 l 1x91c0
EndSplineSet
Validated: 5
Ligature2: "'liga' Standard Ligatures in Latin lookup 0 subtable" a a
LCarets2: 1 0
EndChar

StartChar: aeae
Encoding: 57345 57345 24
Width: 1760
Flags: W
HStem: 0 21G<877 1170> 0 21G<877 1170> 877 585<292 585 1462 1755> 877 293<0 292 585 877 1170 1462 1755 2048> 1462 586<585 877 1170 1462> 1755 293<0 585 1462 2048>
VStem: 292 293<1170 1462> 877 293<0 877 1170 1462> 1462 293<1170 1462>
CounterMasks: 1 0380
LayerCount: 2
Fore
SplineSet
877 0 m 1x9380
 877 877 l 1
 0 877 l 1
 0 1170 l 1
 292 1170 l 1x9380
 292 1462 l 1
 585 1462 l 1x2380
 585 1170 l 1
 877 1170 l 1
 877 1462 l 1x1b80
 585 1462 l 1
 585 1755 l 1
 0 1755 l 1
 0 2048 l 1
 2048 2048 l 1
 2048 1755 l 1
 1462 1755 l 1
 1462 1462 l 1x2780
 1170 1462 l 1
 1170 1170 l 1
 1462 1170 l 1x1b80
 1462 1462 l 1
 1755 1462 l 1x2380
 1755 1170 l 1
 2048 1170 l 1
 2048 877 l 1
 1170 877 l 1
 1170 0 l 1
 877 0 l 1x9380
EndSplineSet
Validated: 5
Ligature2: "'liga' Standard Ligatures in Latin lookup 0 subtable" adieresis adieresis
EndChar

StartChar: ae
Encoding: 57346 57346 25
Width: 1760
Flags: W
HStem: 0 21G<877 1170> 0 21G<877 1170> 292 293<1170 1462> 877 293<0 292 585 877 1170 1462 1755 2048> 1442 20G<292 585 877 1170 1462 1755> 1462 293<585 877 1170 1462> 2028 20G<877 1170>
VStem: 292 293<1170 1462> 877 293<0 292 585 877 1170 1462 1755 2048> 1462 293<585 877 1170 1462>
CounterMasks: 1 01c0
LayerCount: 2
Fore
SplineSet
877 0 m 1xbbc0
 877 877 l 1
 0 877 l 1
 0 1170 l 1
 292 1170 l 1
 292 1462 l 1
 585 1462 l 1
 585 1170 l 1
 877 1170 l 1
 877 1462 l 1
 585 1462 l 1xbbc0
 585 1755 l 1
 877 1755 l 1
 877 2048 l 1
 1170 2048 l 1
 1170 1755 l 1
 1462 1755 l 1x37c0
 1462 1462 l 1
 1170 1462 l 1
 1170 1170 l 1
 1462 1170 l 1
 1462 1462 l 1
 1755 1462 l 1
 1755 1170 l 1
 2048 1170 l 1
 2048 877 l 1
 1755 877 l 1
 1755 585 l 1
 1462 585 l 1
 1462 877 l 1
 1170 877 l 1
 1170 585 l 1
 1462 585 l 1
 1462 292 l 1
 1170 292 l 1
 1170 0 l 1
 877 0 l 1xbbc0
EndSplineSet
Validated: 5
Ligature2: "'liga' Standard Ligatures in Latin lookup 0 subtable" a e
EndChar

StartChar: aee
Encoding: 57347 57347 26
Width: 1760
Flags: W
HStem: 0 21G<877 1170> 0 21G<877 1170> 292 293<1170 1462> 877 293<0 292 585 877 1170 1462 1755 2048> 1442 20G<292 585 1462 1755> 1462 293<1170 1462> 1755 293<0 585>
VStem: 292 293<1170 1462> 877 293<0 292 585 877 1170 1462> 1462 293<585 877 1170 1462>
CounterMasks: 1 01c0
LayerCount: 2
Fore
SplineSet
877 0 m 1xb9c0
 877 877 l 1
 0 877 l 1
 0 1170 l 1
 292 1170 l 1
 292 1462 l 1
 585 1462 l 1xb9c0
 585 1170 l 1
 877 1170 l 1
 877 1462 l 1x35c0
 585 1462 l 1
 585 1755 l 1
 0 1755 l 1
 0 2048 l 1
 1170 2048 l 1x3bc0
 1170 1755 l 1
 1462 1755 l 1x35c0
 1462 1462 l 1x39c0
 1170 1462 l 1x35c0
 1170 1170 l 1
 1462 1170 l 1
 1462 1462 l 1
 1755 1462 l 1
 1755 1170 l 1
 2048 1170 l 1
 2048 877 l 1
 1755 877 l 1
 1755 585 l 1
 1462 585 l 1
 1462 877 l 1
 1170 877 l 1
 1170 585 l 1
 1462 585 l 1
 1462 292 l 1
 1170 292 l 1
 1170 0 l 1
 877 0 l 1xb9c0
EndSplineSet
Validated: 5
Ligature2: "'liga' Standard Ligatures in Latin lookup 0 subtable" adieresis e
EndChar

StartChar: ee
Encoding: 57348 57348 27
Width: 1760
Flags: W
HStem: 0 292<877 1170> 292 293<585 877 1170 1462> 877 293<0 292 585 877 1170 1462 1755 2048> 1442 20G<292 585 877 1170 1462 1755> 1462 293<585 877 1170 1462> 2028 20G<877 1170>
VStem: 292 293<585 877 1170 1462> 585 292<292 585> 877 293<0 292 1170 1462 1755 2048> 1170 292<292 585> 1462 293<585 877 1170 1462>
LayerCount: 2
Fore
SplineSet
877 0 m 1xa480
 877 292 l 1xa5
 1170 292 l 1
 1170 0 l 1
 877 0 l 1xa480
585 292 m 1x65
 585 585 l 1x66
 877 585 l 1x65
 877 292 l 1xa5
 585 292 l 1x65
1170 292 m 1xa480
 1170 585 l 1
 1462 585 l 1
 1462 292 l 1x6440
 1170 292 l 1xa480
292 585 m 1x7620
 292 877 l 1
 0 877 l 1
 0 1170 l 1
 292 1170 l 1
 292 1462 l 1
 585 1462 l 1
 585 1170 l 1
 877 1170 l 1
 877 1462 l 1
 585 1462 l 1x76a0
 585 1755 l 1x2d
 877 1755 l 1
 877 2048 l 1
 1170 2048 l 1
 1170 1755 l 1
 1462 1755 l 1x2ca0
 1462 1462 l 1
 1170 1462 l 1
 1170 1170 l 1
 1462 1170 l 1
 1462 1462 l 1
 1755 1462 l 1
 1755 1170 l 1
 2048 1170 l 1
 2048 877 l 1
 1755 877 l 1
 1755 585 l 1x74a0
 1462 585 l 1x7440
 1462 877 l 1
 585 877 l 1
 585 585 l 1
 292 585 l 1x7620
EndSplineSet
Validated: 5
Ligature2: "'liga' Standard Ligatures in Latin lookup 0 subtable" e e
EndChar

StartChar: ia
Encoding: 57349 57349 28
Width: 1760
Flags: W
HStem: 0 21G<877 1170> 0 21G<877 1170> 877 293<0 292 1170 1462 1755 2048> 1170 292<292 585> 1462 293<585 877 1170 1462> 2028 20G<877 1170> 2028 20G<877 1170>
VStem: 0 292<877 1170> 292 293<1170 1462> 877 293<0 877 1170 1462 1755 2048> 1462 293<1170 1462>
LayerCount: 2
Fore
SplineSet
0 877 m 1x2160
 0 1170 l 1
 292 1170 l 1
 292 877 l 1
 0 877 l 1x2160
292 1170 m 1
 292 1462 l 1
 585 1462 l 1
 585 1170 l 1x10e0
 292 1170 l 1
877 0 m 1xace0
 877 1462 l 1xace0
 585 1462 l 1x10e0
 585 1755 l 1
 877 1755 l 1
 877 2048 l 1
 1170 2048 l 1
 1170 1755 l 1
 1462 1755 l 1
 1462 1462 l 1
 1170 1462 l 1
 1170 1170 l 1
 1462 1170 l 1
 1462 1462 l 1
 1755 1462 l 1
 1755 1170 l 1
 2048 1170 l 1
 2048 877 l 1
 1170 877 l 1
 1170 0 l 1
 877 0 l 1xace0
EndSplineSet
Validated: 5
Ligature2: "'liga' Standard Ligatures in Latin lookup 0 subtable" i a
EndChar

StartChar: ii
Encoding: 57350 57350 29
Width: 1760
Flags: W
HStem: 0 21G<877 1170> 0 21G<877 1170> 877 293<0 292 1755 2048> 1170 292<292 585 1462 1755> 1462 293<585 877 1170 1462> 2028 20G<877 1170> 2028 20G<877 1170>
VStem: 0 292<877 1170> 292 293<1170 1462> 877 293<0 1462 1755 2048> 1462 293<1170 1462> 1755 293<877 1170>
LayerCount: 2
Fore
SplineSet
0 877 m 1x2140
 0 1170 l 1
 292 1170 l 1
 292 877 l 1
 0 877 l 1x2140
1755 877 m 1x2050
 1755 1170 l 1x2060
 2048 1170 l 1
 2048 877 l 1
 1755 877 l 1x2050
292 1170 m 1x2140
 292 1462 l 1
 585 1462 l 1
 585 1170 l 1x10c0
 292 1170 l 1x2140
1462 1170 m 1x1060
 1462 1462 l 1
 1755 1462 l 1x1060
 1755 1170 l 1x2060
 1462 1170 l 1x1060
877 0 m 1x88e0
 877 1462 l 1x88e0
 585 1462 l 1x10e0
 585 1755 l 1
 877 1755 l 1
 877 2048 l 1
 1170 2048 l 1
 1170 1755 l 1
 1462 1755 l 1x0ce0
 1462 1462 l 1x10e0
 1170 1462 l 1
 1170 0 l 1
 877 0 l 1x88e0
EndSplineSet
Validated: 5
Ligature2: "'liga' Standard Ligatures in Latin lookup 0 subtable" i i
EndChar

StartChar: oe
Encoding: 57351 57351 30
Width: 1760
Flags: W
HStem: 0 21G<877 1170> 0 21G<877 1170> 292 293<585 877 1170 1462> 585 292<292 585> 877 293<0 292 1170 1462 1755 2048> 1170 292<292 585> 1462 293<585 877 1170 1462> 2028 20G<877 1170> 2028 20G<877 1170>
VStem: 0 292<877 1170> 292 293<585 877 1170 1462> 877 293<0 292 585 877 1170 1462 1755 2048> 1462 293<585 877 1170 1462>
LayerCount: 2
Fore
SplineSet
292 585 m 1x1038
 292 877 l 1x1058
 585 877 l 1x1038
 585 585 l 1x2038
 292 585 l 1x1038
0 877 m 1x0858
 0 1170 l 1
 292 1170 l 1x0858
 292 877 l 1x1058
 0 877 l 1x0858
292 1170 m 1
 292 1462 l 1
 585 1462 l 1
 585 1170 l 1x0438
 292 1170 l 1
877 0 m 1xa838
 877 292 l 1
 585 292 l 1
 585 585 l 1
 877 585 l 1
 877 1462 l 1xaa38
 585 1462 l 1x0438
 585 1755 l 1
 877 1755 l 1
 877 2048 l 1
 1170 2048 l 1
 1170 1755 l 1
 1462 1755 l 1
 1462 1462 l 1
 1170 1462 l 1
 1170 1170 l 1
 1462 1170 l 1
 1462 1462 l 1
 1755 1462 l 1
 1755 1170 l 1
 2048 1170 l 1
 2048 877 l 1
 1755 877 l 1x0b38
 1755 585 l 1x1038
 1462 585 l 1
 1462 877 l 1
 1170 877 l 1
 1170 585 l 1
 1462 585 l 1
 1462 292 l 1
 1170 292 l 1
 1170 0 l 1
 877 0 l 1xa838
EndSplineSet
Validated: 5
Ligature2: "'liga' Standard Ligatures in Latin lookup 0 subtable" o e
EndChar

StartChar: oo
Encoding: 57352 57352 31
Width: 1760
Flags: W
HStem: 0 21G<877 1170> 0 21G<877 1170> 292 293<585 877 1170 1462> 585 292<292 585 1462 1755> 877 293<0 292 1755 2048> 1170 292<292 585 1462 1755> 1462 293<585 877 1170 1462> 2028 20G<877 1170> 2028 20G<877 1170>
VStem: 0 292<877 1170> 292 293<585 877 1170 1462> 877 293<0 292 585 1462 1755 2048> 1462 293<585 877 1170 1462> 1755 293<877 1170>
LayerCount: 2
Fore
SplineSet
292 585 m 1x1030
 292 877 l 1x1050
 585 877 l 1x1030
 585 585 l 1x2030
 292 585 l 1x1030
1462 585 m 1x2018
 1462 877 l 1
 1755 877 l 1
 1755 585 l 1x1018
 1462 585 l 1x2018
0 877 m 1x0850
 0 1170 l 1
 292 1170 l 1x0850
 292 877 l 1x1050
 0 877 l 1x0850
1755 877 m 1x1018
 1755 1170 l 1x0818
 2048 1170 l 1
 2048 877 l 1x0814
 1755 877 l 1x1018
292 1170 m 1x0850
 292 1462 l 1
 585 1462 l 1
 585 1170 l 1x0430
 292 1170 l 1x0850
1462 1170 m 1x0418
 1462 1462 l 1
 1755 1462 l 1x0418
 1755 1170 l 1x0818
 1462 1170 l 1x0418
877 0 m 1xa238
 877 292 l 1
 585 292 l 1
 585 585 l 1
 877 585 l 1
 877 1462 l 1xa238
 585 1462 l 1x0438
 585 1755 l 1
 877 1755 l 1
 877 2048 l 1
 1170 2048 l 1
 1170 1755 l 1
 1462 1755 l 1x0338
 1462 1462 l 1x0438
 1170 1462 l 1
 1170 585 l 1
 1462 585 l 1
 1462 292 l 1
 1170 292 l 1
 1170 0 l 1
 877 0 l 1xa238
EndSplineSet
Validated: 5
Ligature2: "'liga' Standard Ligatures in Latin lookup 0 subtable" o o
EndChar

StartChar: ua
Encoding: 57353 57353 32
Width: 1760
Flags: W
HStem: 0 21G<877 1170> 0 21G<877 1170> 585 292<292 585> 877 293<0 292 1170 1462 1755 2048> 1462 293<1170 1462> 2028 20G<877 1170 1462 1755>
VStem: 0 292<877 1170> 292 293<585 877> 877 293<0 292 585 877 1170 1462 1755 2048> 1462 293<1170 1462>
LayerCount: 2
Fore
SplineSet
292 585 m 1x2dc0
 292 877 l 1x2ec0
 585 877 l 1
 585 585 l 1
 292 585 l 1x2dc0
0 877 m 1x1ec0
 0 1170 l 1
 292 1170 l 1x1ec0
 292 877 l 1x2ec0
 0 877 l 1x1ec0
877 0 m 1x9dc0
 877 292 l 1
 585 292 l 1
 585 585 l 1
 877 585 l 1xadc0
 877 2048 l 1
 1170 2048 l 1
 1170 1755 l 1
 1462 1755 l 1
 1462 1462 l 1
 1170 1462 l 1
 1170 1170 l 1
 1462 1170 l 1
 1462 1462 l 1
 1755 1462 l 1
 1755 1170 l 1
 2048 1170 l 1
 2048 877 l 1
 1170 877 l 1
 1170 0 l 1
 877 0 l 1x9dc0
EndSplineSet
Validated: 5
Ligature2: "'liga' Standard Ligatures in Latin lookup 0 subtable" u a
EndChar

StartChar: ui
Encoding: 57361 57361 33
Width: 1760
Flags: W
HStem: 0 21G<877 1170> 0 21G<877 1170> 585 292<292 585> 877 293<0 292 1755 2048> 1170 292<1462 1755> 2028 20G<877 1170> 2028 20G<877 1170>
VStem: 0 292<877 1170> 292 293<585 877> 877 293<0 292 585 1462 1755 2048> 1462 293<1170 1462> 1755 293<877 1170>
LayerCount: 2
Fore
SplineSet
292 585 m 1x20c0
 292 877 l 1x2140
 585 877 l 1
 585 585 l 1
 292 585 l 1x20c0
0 877 m 1x1140
 0 1170 l 1
 292 1170 l 1x1140
 292 877 l 1x2140
 0 877 l 1x1140
1755 877 m 1x1050
 1755 1170 l 1x1060
 2048 1170 l 1
 2048 877 l 1
 1755 877 l 1x1050
1462 1170 m 1x0860
 1462 1462 l 1
 1755 1462 l 1x0860
 1755 1170 l 1x1060
 1462 1170 l 1x0860
877 0 m 1xace0
 877 292 l 1
 585 292 l 1
 585 585 l 1
 877 585 l 1
 877 2048 l 1
 1170 2048 l 1
 1170 1755 l 1
 1462 1755 l 1
 1462 1462 l 1
 1170 1462 l 1
 1170 0 l 1
 877 0 l 1xace0
EndSplineSet
Validated: 5
Ligature2: "'liga' Standard Ligatures in Latin lookup 0 subtable" u i
EndChar

StartChar: uo
Encoding: 57362 57362 34
Width: 1760
Flags: W
HStem: 0 21G<877 1170> 0 21G<877 1170> 292 293<585 877 1170 1462> 585 292<292 585 1462 1755> 877 293<0 292 1755 2048> 1170 292<1462 1755> 2028 20G<877 1170> 2028 20G<877 1170>
VStem: 0 292<877 1170> 292 293<585 877> 877 293<0 292 585 1462 1755 2048> 1462 293<585 877 1170 1462> 1755 293<877 1170>
LayerCount: 2
Fore
SplineSet
292 585 m 1x1060
 292 877 l 1x10a0
 585 877 l 1x1060
 585 585 l 1x2060
 292 585 l 1x1060
1462 585 m 1x2030
 1462 877 l 1
 1755 877 l 1
 1755 585 l 1x1030
 1462 585 l 1x2030
0 877 m 1x08a0
 0 1170 l 1
 292 1170 l 1x08a0
 292 877 l 1x10a0
 0 877 l 1x08a0
1755 877 m 1x1030
 1755 1170 l 1x0830
 2048 1170 l 1
 2048 877 l 1x0828
 1755 877 l 1x1030
1462 1170 m 1x0430
 1462 1462 l 1
 1755 1462 l 1x0430
 1755 1170 l 1x0830
 1462 1170 l 1x0430
877 0 m 1xa670
 877 292 l 1
 585 292 l 1
 585 585 l 1
 877 585 l 1
 877 2048 l 1
 1170 2048 l 1
 1170 1755 l 1
 1462 1755 l 1
 1462 1462 l 1
 1170 1462 l 1
 1170 585 l 1
 1462 585 l 1
 1462 292 l 1
 1170 292 l 1
 1170 0 l 1
 877 0 l 1xa670
EndSplineSet
Validated: 5
Ligature2: "'liga' Standard Ligatures in Latin lookup 0 subtable" u o
EndChar

StartChar: yy
Encoding: 57363 57363 35
Width: 1760
Flags: W
HStem: 0 585<585 877 1170 1462> 0 292<0 585 1462 2048> 585 292<292 585 1462 1755> 877 293<0 292 1755 2048>
VStem: 0 292<877 1170> 292 293<585 877> 877 293<585 1170> 1462 293<585 877> 1755 293<877 1170>
LayerCount: 2
Fore
SplineSet
292 585 m 1x26
 292 877 l 1x2a
 585 877 l 1x26
 585 585 l 1x86
 292 585 l 1x26
1462 585 m 1x83
 1462 877 l 1
 1755 877 l 1
 1755 585 l 1x23
 1462 585 l 1x83
0 877 m 1x1a
 0 1170 l 1
 292 1170 l 1x1a
 292 877 l 1x2a
 0 877 l 1x1a
0 0 m 1x4a80
 0 292 l 1x4a80
 585 292 l 1x46
 585 585 l 1
 877 585 l 1
 877 1170 l 1
 1170 1170 l 1
 1170 585 l 1
 1462 585 l 1x97
 1462 292 l 1x47
 2048 292 l 1
 2048 0 l 1
 0 0 l 1x4a80
1755 877 m 1x23
 1755 1170 l 1
 2048 1170 l 1
 2048 877 l 1x1280
 1755 877 l 1x23
EndSplineSet
Validated: 5
Ligature2: "'liga' Standard Ligatures in Latin lookup 0 subtable" y y
EndChar

StartChar: yoe
Encoding: 57364 57364 36
Width: 1760
Flags: W
HStem: 0 292<0 585> 292 293<1170 1462> 585 292<292 585 1462 1755> 877 293<0 292 1755 2048> 1170 292<1462 1755> 1755 293<1462 2048>
VStem: 0 292<877 1170> 292 293<585 877> 877 293<585 1462> 1462 293<585 877 1170 1462> 1755 293<877 1170>
LayerCount: 2
Fore
SplineSet
292 585 m 1x2580
 292 877 l 1x2680
 585 877 l 1
 585 585 l 1
 292 585 l 1x2580
1462 585 m 1x44c0
 1462 877 l 1
 1755 877 l 1
 1755 585 l 1x24c0
 1462 585 l 1x44c0
0 877 m 1x1680
 0 1170 l 1
 292 1170 l 1x1680
 292 877 l 1x2680
 0 877 l 1x1680
1755 877 m 1x24c0
 1755 1170 l 1x14c0
 2048 1170 l 1
 2048 877 l 1x14a0
 1755 877 l 1x24c0
1462 1170 m 1x0cc0
 1462 1462 l 1
 1755 1462 l 1x0cc0
 1755 1170 l 1x14c0
 1462 1170 l 1x0cc0
0 0 m 1x86c0
 0 292 l 1x86c0
 585 292 l 1
 585 585 l 1
 877 585 l 1
 877 2048 l 1
 2048 2048 l 1
 2048 1755 l 1xa5a0
 1462 1755 l 1
 1462 1462 l 1
 1170 1462 l 1
 1170 585 l 1
 1462 585 l 1
 1462 292 l 1
 1170 292 l 1x4cc0
 1170 0 l 1
 0 0 l 1x86c0
EndSplineSet
Validated: 5
Ligature2: "'liga' Standard Ligatures in Latin lookup 0 subtable" y odieresis
EndChar

StartChar: uu
Encoding: 57365 57365 37
Width: 1760
Flags: W
HStem: 0 21G<877 1170> 0 21G<877 1170> 292 293<585 877 1170 1462> 585 292<292 585 1462 1755> 877 293<0 292 1755 2048>
VStem: 0 292<877 1170> 292 293<585 877> 877 293<0 292 585 1170> 1462 293<585 877> 1755 293<877 1170>
LayerCount: 2
Fore
SplineSet
292 585 m 1x13
 292 877 l 1x15
 585 877 l 1x13
 585 585 l 1x23
 292 585 l 1x13
1462 585 m 1x2180
 1462 877 l 1
 1755 877 l 1
 1755 585 l 1x1180
 1462 585 l 1x2180
0 877 m 1x0d
 0 1170 l 1
 292 1170 l 1x0d
 292 877 l 1x15
 0 877 l 1x0d
877 0 m 1xab80
 877 292 l 1
 585 292 l 1
 585 585 l 1
 877 585 l 1
 877 1170 l 1
 1170 1170 l 1
 1170 585 l 1
 1462 585 l 1
 1462 292 l 1
 1170 292 l 1
 1170 0 l 1
 877 0 l 1xab80
1755 877 m 1x1180
 1755 1170 l 1
 2048 1170 l 1
 2048 877 l 1x0940
 1755 877 l 1x1180
EndSplineSet
Validated: 5
Ligature2: "'liga' Standard Ligatures in Latin lookup 0 subtable" u u
EndChar

StartChar: sj
Encoding: 57366 57366 38
Width: 877
Flags: W
HStem: 0 292<877 1170> 292 293<585 877> 877 293<0 292 585 877> 1442 20G<292 585> 1755 293<0 585>
VStem: 292 293<585 877 1170 1462> 585 292<292 585> 877 293<0 292 1170 1462>
LayerCount: 2
Fore
SplineSet
877 0 m 1xb9
 877 292 l 1xba
 1170 292 l 1
 1170 0 l 1
 877 0 l 1xb9
585 292 m 1x7a
 585 585 l 1x7c
 877 585 l 1x7a
 877 292 l 1xba
 585 292 l 1x7a
292 585 m 1
 292 877 l 1
 0 877 l 1
 0 1170 l 1
 292 1170 l 1
 292 1462 l 1
 585 1462 l 1
 585 1170 l 1
 877 1170 l 1
 877 1462 l 1
 585 1462 l 1x7d
 585 1755 l 1x7a
 0 1755 l 1
 0 2048 l 1
 1170 2048 l 1
 1170 877 l 1x79
 585 877 l 1
 585 585 l 1
 292 585 l 1
EndSplineSet
Validated: 5
MultipleSubs2: "Multiple Substitution lookup 11 subtable" s j.init
Ligature2: "'calt' Contextual Alternates in Latin lookup 4 subtable" s j
EndChar

StartChar: h.init
Encoding: 65536 -1 39
Width: 880
Flags: W
HStem: 0 292<0 292> 292 293<292 585> 877 293<292 585 877 1170> 2028 20G<0 292> 2028 20G<0 292>
VStem: 0 292<0 292 1170 2048> 292 293<292 585> 585 292<585 877>
LayerCount: 2
Fore
SplineSet
0 0 m 1xa4
 0 292 l 1
 292 292 l 1
 292 0 l 1
 0 0 l 1xa4
292 292 m 1
 292 585 l 1
 585 585 l 1
 585 292 l 1x62
 292 292 l 1
585 585 m 1
 585 877 l 1
 0 877 l 1
 0 2048 l 1
 292 2048 l 1
 292 1170 l 1
 1170 1170 l 1
 1170 877 l 1
 877 877 l 1
 877 585 l 1x75
 585 585 l 1
EndSplineSet
Validated: 5
EndChar

StartChar: j.init
Encoding: 65537 -1 40
Width: 880
Flags: W
HStem: 0 292<0 292> 292 293<292 585> 585 292<585 877> 877 293<877 1170> 1170 292<585 877> 1462 293<292 585> 1755 293<0 292>
VStem: 0 292<0 292 1755 2048> 292 293<292 585 1462 1755> 585 292<585 877 1170 1462> 877 293<877 1170>
LayerCount: 2
Fore
SplineSet
0 0 m 1x81
 0 292 l 1
 292 292 l 1
 292 0 l 1
 0 0 l 1x81
292 292 m 1
 292 585 l 1
 585 585 l 1
 585 292 l 1x4080
 292 292 l 1
585 585 m 1
 585 877 l 1
 877 877 l 1
 877 585 l 1x2040
 585 585 l 1
877 877 m 1
 877 1170 l 1x1040
 1170 1170 l 1
 1170 877 l 1x1020
 877 877 l 1
585 1170 m 1x0840
 585 1462 l 1x0880
 877 1462 l 1x0840
 877 1170 l 1x1040
 585 1170 l 1x0840
292 1462 m 1x0480
 292 1755 l 1x05
 585 1755 l 1x0480
 585 1462 l 1x0880
 292 1462 l 1x0480
0 1755 m 1x03
 0 2048 l 1
 292 2048 l 1x03
 292 1755 l 1x05
 0 1755 l 1x03
EndSplineSet
Validated: 5
EndChar

StartChar: k.init
Encoding: 65538 -1 41
Width: 880
Flags: W
HStem: 0 292<0 292 585 1170> 585 292<585 877> 877 293<877 1170>
VStem: 585 292<585 877> 877 293<877 1170>
LayerCount: 2
Fore
SplineSet
0 0 m 1xc8
 0 292 l 1
 292 292 l 1
 292 585 l 1
 585 585 l 1
 585 292 l 1xd0
 1170 292 l 1
 1170 0 l 1
 0 0 l 1xc8
585 585 m 1
 585 877 l 1
 877 877 l 1
 877 585 l 1
 585 585 l 1
877 877 m 1
 877 1170 l 1
 1170 1170 l 1
 1170 877 l 1xa8
 877 877 l 1
EndSplineSet
Validated: 5
EndChar

StartChar: l.init
Encoding: 65539 -1 42
Width: 880
Flags: W
HStem: 0 21G<0 292> 0 21G<0 292> 585 292<585 877> 877 293<877 1170> 2028 20G<0 292> 2028 20G<0 292>
VStem: 0 292<0 292 585 2048> 585 292<585 877> 877 293<877 1170>
LayerCount: 2
Fore
SplineSet
585 585 m 1x23
 585 877 l 1
 877 877 l 1
 877 585 l 1
 585 585 l 1x23
877 877 m 1
 877 1170 l 1
 1170 1170 l 1
 1170 877 l 1x1280
 877 877 l 1
0 0 m 1xab
 0 2048 l 1
 292 2048 l 1
 292 585 l 1
 585 585 l 1
 585 292 l 1
 292 292 l 1
 292 0 l 1
 0 0 l 1xab
EndSplineSet
Validated: 5
EndChar

StartChar: m.init
Encoding: 65540 -1 43
Width: 880
Flags: W
HStem: 0 292<0 292> 292 293<292 585> 877 293<0 585 877 1170> 1442 20G<585 877> 1462 293<292 585> 1755 293<0 292>
VStem: 0 292<0 292 1755 2048> 292 293<292 585 1462 1755> 585 292<585 877 1170 1462>
LayerCount: 2
Fore
SplineSet
0 0 m 1xa2
 0 292 l 1
 292 292 l 1
 292 0 l 1
 0 0 l 1xa2
292 292 m 1
 292 585 l 1
 585 585 l 1
 585 292 l 1x61
 292 292 l 1
585 585 m 1
 585 877 l 1
 0 877 l 1
 0 1170 l 1
 585 1170 l 1x7280
 585 1462 l 1x71
 877 1462 l 1
 877 1170 l 1
 1170 1170 l 1
 1170 877 l 1
 877 877 l 1
 877 585 l 1x7080
 585 585 l 1
292 1462 m 1x29
 292 1755 l 1x2a
 585 1755 l 1x29
 585 1462 l 1x31
 292 1462 l 1x29
0 1755 m 1x26
 0 2048 l 1
 292 2048 l 1x26
 292 1755 l 1x2a
 0 1755 l 1x26
EndSplineSet
Validated: 5
EndChar

StartChar: n.init
Encoding: 65541 -1 44
Width: 880
Flags: W
HStem: 0 21G<0 292> 0 21G<0 292> 877 293<877 1170> 1170 292<585 877> 2028 20G<0 292> 2028 20G<0 292>
VStem: 0 292<0 1462 1755 2048> 585 292<1170 1462> 877 293<877 1170>
LayerCount: 2
Fore
SplineSet
877 877 m 1x2280
 877 1170 l 1x23
 1170 1170 l 1
 1170 877 l 1
 877 877 l 1x2280
585 1170 m 1x13
 585 1462 l 1
 877 1462 l 1x13
 877 1170 l 1x23
 585 1170 l 1x13
0 0 m 1x9b
 0 2048 l 1
 292 2048 l 1
 292 1755 l 1
 585 1755 l 1
 585 1462 l 1
 292 1462 l 1
 292 0 l 1
 0 0 l 1x9b
EndSplineSet
Validated: 5
EndChar

StartChar: p.init
Encoding: 65542 -1 45
Width: 880
Flags: W
HStem: 0 21G<0 292> 0 21G<0 292> 877 293<292 585 877 1170> 1442 20G<585 877> 1462 293<292 585> 1755 293<0 292>
VStem: 0 292<0 877 1755 2048> 292 293<1462 1755> 585 292<1170 1462>
LayerCount: 2
Fore
SplineSet
0 0 m 1xb280
 0 1170 l 1
 585 1170 l 1xb280
 585 1462 l 1xb1
 877 1462 l 1
 877 1170 l 1
 1170 1170 l 1
 1170 877 l 1
 292 877 l 1
 292 0 l 1
 0 0 l 1xb280
292 1462 m 1x29
 292 1755 l 1x2a
 585 1755 l 1x29
 585 1462 l 1x31
 292 1462 l 1x29
0 1755 m 1x26
 0 2048 l 1
 292 2048 l 1x26
 292 1755 l 1x2a
 0 1755 l 1x26
EndSplineSet
Validated: 5
EndChar

StartChar: r.init
Encoding: 65543 -1 46
Width: 880
Flags: W
HStem: 0 292<292 1170> 877 293<292 1170>
VStem: 0 292<292 877>
LayerCount: 2
Fore
SplineSet
0 0 m 1
 0 1170 l 1
 1170 1170 l 1
 1170 877 l 1
 292 877 l 1
 292 292 l 1
 1170 292 l 1
 1170 0 l 1
 0 0 l 1
EndSplineSet
Validated: 1
EndChar

StartChar: s.init
Encoding: 65544 -1 47
Width: 880
Flags: W
HStem: 877 293<292 1170> 1755 293<292 1170>
VStem: 0 292<1170 1755>
LayerCount: 2
Fore
SplineSet
0 877 m 1
 0 2048 l 1
 1170 2048 l 1
 1170 1755 l 1
 292 1755 l 1
 292 1170 l 1
 1170 1170 l 1
 1170 877 l 1
 0 877 l 1
EndSplineSet
Validated: 1
EndChar

StartChar: t.init
Encoding: 65545 -1 48
Width: 880
Flags: W
HStem: 877 293<877 1170> 1170 292<585 877> 1755 293<585 1170>
VStem: 0 292<877 1462> 585 292<1170 1462> 877 293<877 1170>
LayerCount: 2
Fore
SplineSet
877 877 m 1xb4
 877 1170 l 1xb8
 1170 1170 l 1
 1170 877 l 1
 877 877 l 1xb4
585 1170 m 1x78
 585 1462 l 1
 877 1462 l 1x78
 877 1170 l 1xb8
 585 1170 l 1x78
0 877 m 1xb8
 0 2048 l 1
 1170 2048 l 1
 1170 1755 l 1xb4
 585 1755 l 1
 585 1462 l 1
 292 1462 l 1x78
 292 877 l 1
 0 877 l 1xb8
EndSplineSet
Validated: 5
EndChar

StartChar: v.init
Encoding: 65546 -1 49
Width: 880
Flags: W
HStem: 0 21G<0 292> 0 21G<0 292> 585 292<585 877> 877 293<877 1170>
VStem: 0 292<0 292 585 1170> 585 292<585 877> 877 293<877 1170>
LayerCount: 2
Fore
SplineSet
585 585 m 1x2c
 585 877 l 1
 877 877 l 1
 877 585 l 1
 585 585 l 1x2c
0 0 m 1xac
 0 1170 l 1
 292 1170 l 1x9c
 292 585 l 1
 585 585 l 1
 585 292 l 1
 292 292 l 1
 292 0 l 1
 0 0 l 1xac
877 877 m 1x2c
 877 1170 l 1
 1170 1170 l 1
 1170 877 l 1x1a
 877 877 l 1x2c
EndSplineSet
Validated: 5
EndChar

StartChar: lj
Encoding: 65547 -1 50
Width: 877
Flags: W
HStem: 0 21G<877 1170> 0 21G<877 1170> 585 292<292 585> 877 293<0 292> 1170 292<292 585> 2028 20G<877 1170> 2028 20G<877 1170>
VStem: 0 292<877 1170> 292 293<585 877 1170 1462> 585 585<292 585 1462 1755> 877 293<0 292 585 1462 1755 2048>
LayerCount: 2
Fore
SplineSet
292 585 m 1x2080
 292 877 l 1x21
 585 877 l 1
 585 585 l 1
 292 585 l 1x2080
0 877 m 1x11
 0 1170 l 1
 292 1170 l 1x11
 292 877 l 1x21
 0 877 l 1x11
292 1170 m 1
 292 1462 l 1
 585 1462 l 1
 585 1170 l 1x0880
 292 1170 l 1
877 0 m 1xac20
 877 292 l 1xac20
 585 292 l 1xac40
 585 585 l 1
 877 585 l 1
 877 1462 l 1
 585 1462 l 1xaca0
 585 1755 l 1xac40
 877 1755 l 1
 877 2048 l 1
 1170 2048 l 1
 1170 0 l 1
 877 0 l 1xac20
EndSplineSet
Validated: 5
MultipleSubs2: "Multiple Substitution lookup 12 subtable" l j.init
Ligature2: "'calt' Contextual Alternates in Latin lookup 4 subtable" l j
EndChar

StartChar: rs
Encoding: 65548 -1 51
Width: 877
Flags: W
HStem: 0 292<0 877> 877 293<0 877> 1755 293<0 877>
VStem: 877 293<292 877 1170 1755>
LayerCount: 2
Fore
SplineSet
0 0 m 1
 0 292 l 1
 877 292 l 1
 877 877 l 1
 0 877 l 1
 0 1170 l 1
 877 1170 l 1
 877 1755 l 1
 0 1755 l 1
 0 2048 l 1
 1170 2048 l 1
 1170 0 l 1
 0 0 l 1
EndSplineSet
Validated: 1
MultipleSubs2: "Multiple Substitution lookup 10 subtable" r s.init
Ligature2: "'calt' Contextual Alternates in Latin lookup 4 subtable" r s
EndChar

StartChar: mp
Encoding: 65549 -1 52
Width: 877
Flags: W
HStem: 0 21G<877 1170> 0 21G<877 1170> 292 293<585 877> 877 293<0 292 585 877> 1442 20G<292 585> 1462 293<585 877> 1755 293<877 1170>
VStem: 292 293<585 877 1170 1462> 585 292<1462 1755> 877 293<0 292 585 877 1755 2048>
LayerCount: 2
Fore
SplineSet
877 0 m 1xb940
 877 292 l 1xb940
 585 292 l 1xb880
 585 585 l 1
 877 585 l 1
 877 877 l 1
 585 877 l 1
 585 585 l 1
 292 585 l 1
 292 877 l 1
 0 877 l 1
 0 1170 l 1
 292 1170 l 1
 292 1462 l 1
 585 1462 l 1
 585 1170 l 1
 1170 1170 l 1
 1170 0 l 1
 877 0 l 1xb940
585 1462 m 1
 585 1755 l 1
 877 1755 l 1
 877 1462 l 1x3480
 585 1462 l 1
877 1755 m 1
 877 2048 l 1
 1170 2048 l 1
 1170 1755 l 1x3240
 877 1755 l 1
EndSplineSet
Validated: 5
MultipleSubs2: "Multiple Substitution lookup 7 subtable" m p.init
Ligature2: "'calt' Contextual Alternates in Latin lookup 4 subtable" m p
EndChar

StartChar: rt
Encoding: 65550 -1 53
Width: 877
Flags: W
HStem: 0 292<0 877> 877 293<0 292 585 877> 1442 20G<292 585> 1755 293<0 585>
VStem: 292 293<1170 1462> 877 293<292 877 1170 1462>
LayerCount: 2
Fore
SplineSet
0 0 m 1
 0 292 l 1
 877 292 l 1
 877 877 l 1
 0 877 l 1
 0 1170 l 1
 292 1170 l 1
 292 1462 l 1
 585 1462 l 1
 585 1170 l 1
 877 1170 l 1
 877 1462 l 1
 585 1462 l 1
 585 1755 l 1
 0 1755 l 1
 0 2048 l 1
 1170 2048 l 1
 1170 0 l 1
 0 0 l 1
EndSplineSet
Validated: 5
MultipleSubs2: "Multiple Substitution lookup 8 subtable" r t.init
Ligature2: "'calt' Contextual Alternates in Latin lookup 4 subtable" r t
EndChar

StartChar: ks
Encoding: 65551 -1 54
Width: 877
Flags: W
HStem: 0 292<0 585 877 1170> 877 293<0 292 585 877> 1755 293<0 877>
VStem: 585 292<292 585> 877 293<1170 1755>
LayerCount: 2
Fore
SplineSet
0 0 m 1xe8
 0 292 l 1
 585 292 l 1
 585 585 l 1
 877 585 l 1
 877 292 l 1xf0
 1170 292 l 1
 1170 0 l 1
 0 0 l 1xe8
292 585 m 1
 292 877 l 1
 0 877 l 1
 0 1170 l 1
 877 1170 l 1
 877 1755 l 1
 0 1755 l 1
 0 2048 l 1
 1170 2048 l 1
 1170 877 l 1xe8
 585 877 l 1
 585 585 l 1
 292 585 l 1
EndSplineSet
Validated: 5
MultipleSubs2: "Multiple Substitution lookup 6 subtable" k s.init
Ligature2: "'calt' Contextual Alternates in Latin lookup 4 subtable" k s
EndChar

StartChar: rj
Encoding: 65552 -1 55
Width: 877
Flags: W
HStem: 0 292<0 585> 877 293<0 292 585 877> 1442 20G<292 585> 1462 293<585 877> 1755 293<877 1170>
VStem: 292 293<585 877 1170 1462> 585 292<1462 1755> 877 293<585 877 1755 2048>
LayerCount: 2
Fore
SplineSet
0 0 m 1xe5
 0 292 l 1
 585 292 l 1xe2
 585 585 l 1
 877 585 l 1
 877 877 l 1
 585 877 l 1
 585 585 l 1
 292 585 l 1
 292 877 l 1
 0 877 l 1
 0 1170 l 1
 292 1170 l 1
 292 1462 l 1
 585 1462 l 1
 585 1170 l 1
 1170 1170 l 1
 1170 0 l 1
 0 0 l 1xe5
585 1462 m 1xe4
 585 1755 l 1
 877 1755 l 1
 877 1462 l 1xd2
 585 1462 l 1xe4
877 1755 m 1
 877 2048 l 1
 1170 2048 l 1
 1170 1755 l 1xc9
 877 1755 l 1
EndSplineSet
Validated: 5
MultipleSubs2: "Multiple Substitution lookup 13 subtable" r j.init
Ligature2: "'calt' Contextual Alternates in Latin lookup 4 subtable" r j
EndChar

StartChar: g.init
Encoding: 65553 -1 56
Width: 880
Flags: W
HStem: 0 292<0 292> 292 293<292 585> 585 292<585 877> 877 293<877 1170> 1170 292<585 877> 2028 20G<0 292> 2028 20G<0 292>
VStem: 0 292<0 292 877 1462 1755 2048> 292 293<292 585> 585 292<585 877 1170 1462> 877 293<877 1170>
LayerCount: 2
Fore
SplineSet
0 0 m 1x81
 0 292 l 1
 292 292 l 1
 292 0 l 1
 0 0 l 1x81
292 292 m 1
 292 585 l 1
 585 585 l 1
 585 292 l 1x4080
 292 292 l 1
585 585 m 1
 585 877 l 1
 877 877 l 1
 877 585 l 1x2040
 585 585 l 1
877 877 m 1
 877 1170 l 1x1040
 1170 1170 l 1
 1170 877 l 1x1020
 877 877 l 1
585 1170 m 1x0840
 585 1462 l 1
 877 1462 l 1x0840
 877 1170 l 1x1040
 585 1170 l 1x0840
0 877 m 1x1140
 0 2048 l 1
 292 2048 l 1
 292 1755 l 1
 585 1755 l 1
 585 1462 l 1
 292 1462 l 1x0d40
 292 877 l 1
 0 877 l 1x1140
EndSplineSet
Validated: 5
EndChar

StartChar: nt
Encoding: 65554 -1 57
Width: 877
Flags: W
HStem: 0 21G<877 1170> 0 21G<877 1170> 877 293<0 292> 1170 292<292 585> 1755 293<0 585>
VStem: 0 292<877 1170> 292 293<1170 1462> 877 293<0 1462>
LayerCount: 2
Fore
SplineSet
0 877 m 1x2d
 0 1170 l 1
 292 1170 l 1
 292 877 l 1
 0 877 l 1x2d
292 1170 m 1
 292 1462 l 1
 585 1462 l 1
 585 1170 l 1x1b
 292 1170 l 1
877 0 m 1x9d
 877 1462 l 1
 585 1462 l 1
 585 1755 l 1x9b
 0 1755 l 1
 0 2048 l 1
 1170 2048 l 1
 1170 0 l 1
 877 0 l 1x9d
EndSplineSet
Validated: 5
MultipleSubs2: "Multiple Substitution lookup 9 subtable" n t.init
Ligature2: "'calt' Contextual Alternates in Latin lookup 4 subtable" n t
EndChar
